HIERARCHY
ROOT hip
{
  OFFSET 0 0 0
  CHANNELS 6 Xposition Yposition Zposition Zrotation Yrotation Xrotation
  JOINT abdomen
  {
    OFFSET 0 20.6881 -0.73152
    CHANNELS 3 Zrotation Xrotation Yrotation
    JOINT chest
    {
      OFFSET 0 11.7043 -0.48768
      CHANNELS 3 Zrotation Xrotation Yrotation
      JOINT neck
      {
        OFFSET 0 22.1894 -2.19456
        CHANNELS 3 Zrotation Xrotation Yrotation
        JOINT head
        {
          OFFSET -0.24384 7.07133 1.2192
          CHANNELS 3 Zrotation Xrotation Yrotation
          JOINT leftEye
          {
            OFFSET 4.14528 8.04674 8.04672
            CHANNELS 3 Zrotation Xrotation Yrotation
            End Site
            {
              OFFSET 1 0 0
            }
          }
          JOINT rightEye
          {
            OFFSET -3.6576 8.04674 8.04672
            CHANNELS 3 Zrotation Xrotation Yrotation
            End Site
            {
              OFFSET 1 0 0
            }
          }
        }
      }
      JOINT rCollar
      {
        OFFSET -2.68224 19.2634 -4.8768
        CHANNELS 3 Zrotation Xrotation Yrotation
        JOINT rShldr
        {
          OFFSET -8.77824 -1.95073 1.46304
          CHANNELS 3 Zrotation Xrotation Yrotation
          JOINT rForeArm
          {
            OFFSET -28.1742 -1.7115 0.48768
            CHANNELS 3 Zrotation Xrotation Yrotation
            JOINT rHand
            {
              OFFSET -22.5879 0.773209 7.07136
              CHANNELS 3 Zrotation Xrotation Yrotation
              JOINT rThumb1
              {
                OFFSET -1.2192 -0.487915 3.41376
                CHANNELS 3 Zrotation Xrotation Yrotation
                JOINT rThumb2
                {
                  OFFSET -3.37035 -0.52449 3.41376
                  CHANNELS 3 Zrotation Xrotation Yrotation
                  End Site
                  {
                    OFFSET -1.78271 -1.18214 1.43049
                  }
                }
              }
              JOINT rIndex1
              {
                OFFSET -7.75947 0.938293 5.60832
                CHANNELS 3 Zrotation Xrotation Yrotation
                JOINT rIndex2
                {
                  OFFSET -2.54057 -0.884171 1.56538
                  CHANNELS 3 Zrotation Xrotation Yrotation
                  End Site
                  {
                    OFFSET -1.62519 -0.234802 1.16502
                  }
                }
              }
              JOINT rMid1
              {
                OFFSET -8.24714 1.18213 3.41376
                CHANNELS 3 Zrotation Xrotation Yrotation
                JOINT rMid2
                {
                  OFFSET -3.10165 -0.590103 1.0647
                  CHANNELS 3 Zrotation Xrotation Yrotation
                  End Site
                  {
                    OFFSET -2.48547 -0.328903 0.83742
                  }
                }
              }
              JOINT rRing1
              {
                OFFSET -8.82822 0.546677 1.51678
                CHANNELS 3 Zrotation Xrotation Yrotation
                JOINT rRing2
                {
                  OFFSET -2.60934 -0.819778 -0.0198488
                  CHANNELS 3 Zrotation Xrotation Yrotation
                  End Site
                  {
                    OFFSET -2.33842 -0.294052 0.168128
                  }
                }
              }
              JOINT rPinky1
              {
                OFFSET -8.27202 -0.0477905 -0.4584
                CHANNELS 3 Zrotation Xrotation Yrotation
                JOINT rPinky2
                {
                  OFFSET -1.82734 -0.647385 -0.700984
                  CHANNELS 3 Zrotation Xrotation Yrotation
                  End Site
                  {
                    OFFSET -1.69225 -0.51767 -0.607171
                  }
                }
              }
            }
          }
        }
      }
      JOINT lCollar
      {
        OFFSET 2.68224 19.2634 -4.8768
        CHANNELS 3 Zrotation Xrotation Yrotation
        JOINT lShldr
        {
          OFFSET 8.77824 -1.95073 1.46304
          CHANNELS 3 Zrotation Xrotation Yrotation
          JOINT lForeArm
          {
            OFFSET 28.1742 -1.7115 0.48768
            CHANNELS 3 Zrotation Xrotation Yrotation
            JOINT lHand
            {
              OFFSET 22.5879 0.773209 7.07136
              CHANNELS 3 Zrotation Xrotation Yrotation
              JOINT lThumb1
              {
                OFFSET 1.2192 -0.487915 3.41376
                CHANNELS 3 Zrotation Xrotation Yrotation
                JOINT lThumb2
                {
                  OFFSET 3.37035 -0.52449 3.41376
                  CHANNELS 3 Zrotation Xrotation Yrotation
                  End Site
                  {
                    OFFSET 1.78271 -1.18214 1.43049
                  }
                }
              }
              JOINT lIndex1
              {
                OFFSET 7.75947 0.938293 5.60832
                CHANNELS 3 Zrotation Xrotation Yrotation
                JOINT lIndex2
                {
                  OFFSET 2.54057 -0.884171 1.56538
                  CHANNELS 3 Zrotation Xrotation Yrotation
                  End Site
                  {
                    OFFSET 1.62519 -0.234802 1.16502
                  }
                }
              }
              JOINT lMid1
              {
                OFFSET 8.24714 1.18213 3.41376
                CHANNELS 3 Zrotation Xrotation Yrotation
                JOINT lMid2
                {
                  OFFSET 3.10165 -0.590103 1.0647
                  CHANNELS 3 Zrotation Xrotation Yrotation
                  End Site
                  {
                    OFFSET 2.48547 -0.328903 0.83742
                  }
                }
              }
              JOINT lRing1
              {
                OFFSET 8.82822 0.546677 1.51678
                CHANNELS 3 Zrotation Xrotation Yrotation
                JOINT lRing2
                {
                  OFFSET 2.60934 -0.819778 -0.0198488
                  CHANNELS 3 Zrotation Xrotation Yrotation
                  End Site
                  {
                    OFFSET 2.33842 -0.294052 0.168128
                  }
                }
              }
              JOINT lPinky1
              {
                OFFSET 8.27202 -0.0477905 -0.4584
                CHANNELS 3 Zrotation Xrotation Yrotation
                JOINT lPinky2
                {
                  OFFSET 1.82734 -0.647385 -0.700984
                  CHANNELS 3 Zrotation Xrotation Yrotation
                  End Site
                  {
                    OFFSET 1.69225 -0.51767 -0.607171
                  }
                }
              }
            }
          }
        }
      }
    }
  }
  JOINT rButtock
  {
    OFFSET -8.77824 4.35084 1.2192
    CHANNELS 3 Zrotation Xrotation Yrotation
    JOINT rThigh
    {
      OFFSET 0 -1.70687 -2.19456
      CHANNELS 3 Zrotation Xrotation Yrotation
      JOINT rShin
      {
        OFFSET 0 -36.8199 0.73152
        CHANNELS 3 Zrotation Xrotation Yrotation
        JOINT rFoot
        {
          OFFSET 0.73152 -45.1104 -5.12064
          CHANNELS 3 Zrotation Xrotation Yrotation
          End Site
          {
            OFFSET -1.1221 -3.69964 12.103
          }
        }
      }
    }
  }
  JOINT lButtock
  {
    OFFSET 8.77824 4.35084 1.2192
    CHANNELS 3 Zrotation Xrotation Yrotation
    JOINT lThigh
    {
      OFFSET 0 -1.70687 -2.19456
      CHANNELS 3 Zrotation Xrotation Yrotation
      JOINT lShin
      {
        OFFSET 0 -36.8199 0.73152
        CHANNELS 3 Zrotation Xrotation Yrotation
        JOINT lFoot
        {
          OFFSET -0.73152 -45.1104 -5.12064
          CHANNELS 3 Zrotation Xrotation Yrotation
          End Site
          {
            OFFSET 1.1221 -3.69964 12.103
          }
        }
      }
    }
  }
}
MOTION
Frames:	5
Frame Time:	0.03333
-38.6032 65.0444 -55.4708 -11.011957 -43.556975 19.577444 0.631594 -5.403946 0.085684 0.319213 -9.912321 -5.756218 -1.484993 4.716167 -53.492211 19.902611 6.114247 64.970314 0.0004 0.0 0.001532 -0.000683 -0.0 0.000498 -50.896761 -86.504846 -72.587995 -65.371483 -34.293926 -61.942482 -179.215561 5.924622 -50.466763 -10.489255 15.538056 -0.438444 -1.582684 1.556629 0.264287 -25.25204 21.054416 23.059824 -0.326854 0.530198 0.185606 -167.734914 -22.192323 109.416606 -0.058167 0.167864 0.031278 -55.977187 62.337602 49.204741 -145.120031 0.184596 -179.188364 -157.337188 45.533694 175.528938 13.633252 46.898636 11.157883 -158.728987 48.913028 -149.14964 143.620757 38.233773 -148.081481 -171.144697 -38.280779 -172.10089 151.269903 22.471569 -54.585797 167.95716 -5.6327 -144.414422 173.056485 -10.731939 -89.920318 -121.234047 -60.788927 -88.92976 145.905924 -7.26053 -118.948723 160.091305 -10.851481 -119.33115 160.672418 -6.667929 -143.245349 -3.158672 0.178995 -0.384334 72.132922 72.973455 -89.990311 -5.104747 27.974697 0.703377 157.777126 58.854245 150.668331 147.270456 8.660966 141.30435 179.998133 75.750335 0.0 171.075681 51.541695 -180.0 63.139483 -61.401919 -169.461968 -25.463047 -37.537815 73.296579 179.998406 75.749524 0.001645 -172.915434 30.589748 -3.497369 -11.931581 70.026619 94.334194 -14.141883 -58.626989 -97.73938
-38.9129 63.33410000000001 -50.83370000000001 -7.528632 -44.190356 15.238666 -2.642537 -2.078068 -51.844647 7.825021 -6.568845 46.05835 -1.009982 9.871015 -71.72097 24.487973 9.912973 89.957033 -0.003778 0.0 -0.002068 0.002225 -0.0 -0.000776 -9.652138 34.836011 11.199931 114.264198 -70.720663 54.72129 12.031318 74.758153 120.914776 -10.913052 31.105852 1.858693 -7.350913 7.062347 1.570556 -155.25193 -62.404849 113.119432 23.267014 -41.070982 -5.689694 -173.202699 -35.577015 108.44145 -14.092352 30.983632 10.180261 5.27594 -5.845808 -0.668013 -73.16503 -72.14261 -90.19805 13.90668 29.735302 -0.559057 -74.132385 -51.745969 -72.618421 -153.690364 36.247985 -147.214557 149.904911 22.421679 -154.975141 -22.988242 76.350067 29.663662 -10.658937 81.801491 -49.913335 12.976526 -34.839429 8.797763 160.05218 2.21335 -88.878029 163.796456 -7.420689 -81.72274 90.226403 41.073449 -75.796575 -5.441966 1.070989 5.072627 -10.082276 -31.592432 3.254044 163.100859 -3.898385 -143.22282 145.009452 -5.003233 177.548675 66.191915 87.670954 -79.866484 12.839946 -24.808655 12.208325 -15.141826 41.710768 -8.316531 -0.00032 0.000866 -0.0 -6.053121 -33.442069 -3.445053 -117.908416 78.744687 -150.519892 -145.420834 -11.659464 103.149399 179.980514 75.75002 0.013333 -177.662439 36.082472 0.0 -38.901925 60.382038 -35.95226 94.661124 63.307879 -4.228753
-39.2637 61.9432 -45.402100000000004 -4.183624 -44.461869 11.458523 -6.437604 -0.139648 -88.762535 9.354474 0.004201 81.329779 18.588 7.516428 79.250884 -18.821186 -1.393897 -54.750906 0.002822 0.0 0.00213 0.002822 0.0 0.00213 -8.334878 31.806415 9.768198 44.960508 -6.723192 17.553945 4.831515 -0.299143 129.374263 -10.155682 38.687433 3.118132 -0.441857 0.435197 0.069046 -123.226541 -15.139527 110.489394 -145.339401 -6.264025 118.678101 3.321444 13.125307 -7.126931 -125.642936 49.839204 115.273227 2.836566 1.667471 0.474936 -145.098829 -1.522216 -178.650228 12.26104 44.683863 -3.864756 -26.564571 -38.860468 -25.606694 3.469096 0.69821 -0.094474 158.465007 -30.011997 -166.911512 139.908487 -19.298398 160.054767 21.164327 34.095134 53.611485 162.940286 0.322461 -143.85412 160.051802 2.213238 -88.87822 -21.802472 -56.28219 -23.517289 27.419814 30.640258 -20.097811 -8.389288 -0.792495 1.557991 0.570434 1.648625 -0.320418 9.127615 29.608576 -7.358169 -0.003221 1.688614 -0.529245 -6.536083 31.036528 -4.968653 -16.520891 57.85869 -12.542638 81.287689 -53.995289 79.957641 -0.004367 0.000924 -0.004368 -2.584789 -47.613723 -3.497524 -140.309338 68.942021 -146.571933 0.748346 -36.689353 -85.779321 0.0 -0.001645 0.000752 -1.889833 -36.325855 180.0 29.304589 -68.585658 -52.785813 -29.102832 6.223929 -91.816725
-39.4733 61.8337 -38.6003 -3.831938 -44.355095 10.799381 -9.293628 3.174402 0.129131 2.618342 -11.456726 -8.64067 -0.717885 14.628632 -100.262497 23.638895 20.587506 121.957116 0.00327 -0.0 -0.00179 -0.002274 0.0 -0.000342 -153.050107 10.023259 158.66755 -94.651258 68.390831 85.632281 157.953519 10.520423 -32.482581 -102.550614 77.428811 84.975278 51.059058 -41.204536 12.856405 -140.015357 -2.369002 116.402873 10.745063 -19.048512 -4.725579 2.051592 15.852553 2.823045 0.540214 -1.590114 -0.294696 91.950433 -78.576848 62.957324 -0.008059 -0.872039 -0.274433 10.380713 0.259932 -0.035284 5.665267 16.871977 5.08615 14.894546 44.050448 8.655572 48.795861 -86.434272 70.458303 -48.554692 -17.673139 -13.51281 -15.097389 13.184331 -23.418503 13.650465 -6.238359 3.212504 89.135727 38.427691 -50.299507 28.749758 -6.361422 -35.69669 2.686125 4.226748 -1.58399 -0.610274 14.041458 -2.835949 -8.397181 -26.367899 3.094058 163.347842 -4.70041 -143.318748 0.013906 -1.322958 0.417158 156.30421 -22.189803 -174.455129 10.23743 -20.961577 9.694102 128.898155 -28.303091 127.585457 -179.991228 75.75038 -0.006002 -174.825046 14.352337 -1.186221 -159.529404 64.325924 -86.456498 -64.665422 -44.466037 -163.493599 -0.0 -0.000739 -0.000821 -3.618684 -27.604348 -7.771984 -52.914366 47.606932 -61.297165 65.625302 -37.943866 136.989448
-39.3458 63.0717 -30.6573 -3.822735 -43.189626 10.02498 -6.343837 1.48811 -79.214659 9.106822 -2.28922 69.725152 17.866694 13.853611 118.14371 -20.985143 13.98961 -93.125957 0.002256 0.0 0.000822 -0.0033 -0.0 0.002221 -155.613863 -4.236447 161.990953 88.512948 -77.561421 91.30866 -64.671671 -82.271711 63.780404 -3.77972 21.023427 1.318896 83.254046 -50.258656 33.615555 -57.781757 31.421664 19.402196 -10.962139 15.486439 7.146807 1.399541 11.355573 1.825222 -8.417087 20.88033 5.645354 -13.307112 36.418766 10.65564 -72.966293 -72.14319 -89.99007 14.724434 0.476796 -4.529974 9.965532 32.462095 8.625313 -13.995712 -30.443391 -14.614403 129.706951 55.102574 -133.553654 22.43208 -15.687351 14.267229 176.855312 -2.843245 157.597654 9.150975 -21.364528 5.802249 -81.971882 -50.091634 -32.722558 139.302642 14.173706 -104.47768 149.659762 -14.028885 -120.543356 62.361871 57.314896 -45.941702 -7.904616 -24.807533 3.013127 176.038794 -41.071243 -143.073255 145.120326 1.974817 179.750104 154.302072 -12.631121 177.493758 140.593782 -1.001792 137.665636 25.463907 -40.294725 27.039723 -0.000329 -0.000123 0.000423 27.363978 -69.991495 -180.0 121.429372 -56.693596 15.470784 -136.397742 16.839368 75.223701 179.975382 75.750466 0.020256 167.212156 56.717017 10.604361 -24.500497 44.003471 44.989894 92.890405 -35.394423 -1.532993
